<svg xmlns="http://www.w3.org/2000/svg" width="497.95098876953125" height="497.95001220703125" style=""><rect id="backgroundrect" width="100%" height="100%" x="0" y="0" fill="none" stroke="none"/><linearGradient id="a" x1="0.14644624292850494" y1="0.14644642174243927" x2="0.8535519242286682" y2="0.8535535335540771"><stop offset="0" stop-color="#2489be"/><stop offset="1" stop-color="#0575b3"/></linearGradient><g class="currentLayer" style=""><title>Layer 1</title><path d="M249.6416107137249,7.025000002656927 C115.64727524845104,7.025000002656927 7.025000002435519,115.38848619890067 7.025000002435519,249.0635845033682 S115.64727524845104,491.10216900407954 249.6416107137249,491.10216900407954 S492.25919588675026,382.7386828078357 492.25919588675026,249.0635845033682 C492.2582214250143,115.38848619890067 383.6339972555269,7.025000002656927 249.6416107137249,7.025000002656927 zm-64.7305697347879,359.0531455577717 h-53.26895079639576 V194.39139671850825 h53.26895079639576 v171.68674884192032 zM158.02271829852083,171.90774019744214 c-17.397065372140375,0 -31.50045007672714,-14.184496380961454 -31.50045007672714,-31.679129844862658 c0,-17.496577744126125 14.105333628058695,-31.680101984975114 31.50045007672714,-31.680101984975114 s31.49850115325522,14.18352424084899 31.49850115325522,31.680101984975114 c0.0009744617359626047,17.49560560401366 -14.102410242850807,31.679129844862658 -31.49850115325522,31.679129844862658 zm226.51363052450733,194.17040536298651 h-53.010718436365664 v-90.12127698585776 c0,-24.717634499508318 -9.411351445926831,-38.51521911570913 -29.002904647454987,-38.51521911570913 c-21.32219724459774,0 -32.46126934838627,14.370175142442069 -32.46126934838627,38.51521911570913 v90.12127698585776 h-51.091028816519334 V194.39139671850825 h51.091028816519334 v23.12332471506745 s15.368236037866229,-28.360243500910734 51.859879126193825,-28.360243500910734 c36.492617550063564,0 62.61598776774906,22.22895581160062 62.61598776774906,68.2140995514827 l-0.0009744617359626047,108.7095680762809 z" fill="#000000" id="svg_1" class="" fill-opacity="1"/></g></svg>